<svg xmlns="http://www.w3.org/2000/svg" viewBox="0 0 24 24" width="24" height="24">
  <!-- Minimal elephant head - material/outline style -->
  <path d="
    M 8 4
    C 5 4, 3 7, 3 10
    C 3 13, 5 15, 6 16
    L 6 19
    C 6 19.5, 6.5 19.5, 6.5 19
    L 7 16.5
    C 8.5 17.5, 10.5 18, 12 18
    C 13.5 18, 15.5 17.5, 17 16.5
    L 17.5 19
    C 17.5 19.5, 18 19.5, 18 19
    L 18 16
    C 19 15, 21 13, 21 10
    C 21 7, 19 4, 16 4
    C 14 4, 13 6, 12 7
    C 11 6, 10 4, 8 4
    Z
  " fill="none" stroke="#e0e0e0" stroke-width="1.5" stroke-linejoin="round" stroke-linecap="round"/>

  <!-- Ear left -->
  <path d="M 5.5 7 C 3.5 8, 2.5 10.5, 3.5 12" fill="none" stroke="#e0e0e0" stroke-width="1" stroke-linecap="round"/>

  <!-- Ear right -->
  <path d="M 18.5 7 C 20.5 8, 21.5 10.5, 20.5 12" fill="none" stroke="#e0e0e0" stroke-width="1" stroke-linecap="round"/>

  <!-- Trunk -->
  <path d="M 10.5 13 C 10.5 15, 9.5 17, 9 18.5 C 8.5 19.5, 9 20.5, 10 20" fill="none" stroke="#e0e0e0" stroke-width="1.2" stroke-linecap="round"/>

  <!-- Tusk left -->
  <path d="M 9 12.5 L 7.5 14.5" stroke="#b0b0b0" stroke-width="1.2" stroke-linecap="round"/>

  <!-- Tusk right -->
  <path d="M 15 12.5 L 16.5 14.5" stroke="#b0b0b0" stroke-width="1.2" stroke-linecap="round"/>

  <!-- Eye left -->
  <circle cx="9" cy="9.5" r="1" fill="#e0e0e0"/>

  <!-- Eye right -->
  <circle cx="15" cy="9.5" r="1" fill="#e0e0e0"/>
</svg>
