<svg xmlns="http://www.w3.org/2000/svg" viewBox="0 0 24 24" width="24" height="24">
  <!-- Elephant head outline (dimmed) -->
  <path d="
    M 8 4
    C 5 4, 3 7, 3 10
    C 3 13, 5 15, 6 16
    L 6 19
    C 6 19.5, 6.5 19.5, 6.5 19
    L 7 16.5
    C 8.5 17.5, 10.5 18, 12 18
    C 13.5 18, 15.5 17.5, 17 16.5
    L 17.5 19
    C 17.5 19.5, 18 19.5, 18 19
    L 18 16
    C 19 15, 21 13, 21 10
    C 21 7, 19 4, 16 4
    C 14 4, 13 6, 12 7
    C 11 6, 10 4, 8 4
    Z
  " fill="none" stroke="#808080" stroke-width="1.5" stroke-linejoin="round" stroke-linecap="round"/>

  <path d="M 5.5 7 C 3.5 8, 2.5 10.5, 3.5 12" fill="none" stroke="#808080" stroke-width="1" stroke-linecap="round"/>
  <path d="M 18.5 7 C 20.5 8, 21.5 10.5, 20.5 12" fill="none" stroke="#808080" stroke-width="1" stroke-linecap="round"/>
  <path d="M 10.5 13 C 10.5 15, 9.5 17, 9 18.5 C 8.5 19.5, 9 20.5, 10 20" fill="none" stroke="#808080" stroke-width="1.2" stroke-linecap="round"/>
  <path d="M 9 12.5 L 7.5 14.5" stroke="#666" stroke-width="1.2" stroke-linecap="round"/>
  <path d="M 15 12.5 L 16.5 14.5" stroke="#666" stroke-width="1.2" stroke-linecap="round"/>

  <!-- Eyes closed -->
  <line x1="7.5" y1="9.5" x2="10.5" y2="9.5" stroke="#808080" stroke-width="1.2" stroke-linecap="round"/>
  <line x1="13.5" y1="9.5" x2="16.5" y2="9.5" stroke="#808080" stroke-width="1.2" stroke-linecap="round"/>

  <!-- Status: red dot -->
  <circle cx="20" cy="20" r="3.5" fill="#ef5350"/>
</svg>
